<svg width="82" height="82" viewBox="0 0 82 82" fill="none" xmlns="http://www.w3.org/2000/svg">
<g clip-path="url(#clip0_13_7)">
<path d="M41 0C63.6423 0 82 18.3552 82 41C82 63.6448 63.6448 82 41 82C18.3552 82 0 63.6448 0 41C0 18.3552 18.3552 0 41 0ZM41 76.957C60.7825 76.957 76.875 60.7825 76.875 41C76.875 21.2175 60.7825 5.125 41 5.125C21.2175 5.125 5.125 21.2175 5.125 41C5.125 60.7825 21.2175 76.957 41 76.957ZM39.3677 25.5148C40.3671 26.5142 40.3671 28.1388 39.3677 29.1382L30.0991 38.4067H58.9631C60.3802 38.4067 61.5256 39.5547 61.5256 40.9692C61.5256 42.3837 60.3802 43.5318 58.9631 43.5318H29.9377L39.3677 52.9617C40.3671 53.9611 40.3671 55.5832 39.3677 56.5851C38.868 57.0848 38.212 57.3359 37.556 57.3359C36.9 57.3359 36.244 57.0848 35.7443 56.5851L20.6076 41.0487L35.7443 25.5123C36.7462 24.5129 38.3658 24.5129 39.3703 25.5123L39.3677 25.5148Z" fill="black"/>
</g>
<defs>
<clipPath id="clip0_13_7">
<rect width="82" height="82" fill="white" transform="matrix(-1 0 0 1 82 0)"/>
</clipPath>
</defs>
</svg>
