<?xml version="1.0" encoding="UTF-8"?> <svg xmlns="http://www.w3.org/2000/svg" width="122" height="37" viewBox="0 0 122 37" fill="none"><g clip-path="url(#clip0_98_20538)"><path d="M119.564 2.57817C117.939 2.61979 116.874 4.1586 116.911 5.46196C116.944 6.72012 117.604 6.97818 117.619 7.52758C117.653 8.78575 116.931 8.87256 116.83 9.42553C119.596 9.35418 121.872 6.87709 121.815 4.76509C121.787 3.68887 121.048 2.54011 119.564 2.57817ZM28.4097 2.29871C28.3745 0.975134 27.3282 -0.0606518 24.8028 0.00356459C18.9201 0.154592 11.6833 4.74606 6.5475 10.4114C5.15687 9.91191 4.13117 8.9891 4.0948 7.61796C4.03054 5.18487 6.32078 4.30844 7.78053 4.27157C7.34284 3.84466 6.80211 3.67222 5.8043 3.6972C4.15057 3.74001 1.92458 5.23839 1.98278 7.41699C2.02885 9.10445 3.69107 10.5053 5.83582 11.2212C2.27861 15.3774 -0.0977156 20.0117 0.00412689 23.8611C0.0877832 26.978 2.54655 30.9428 6.59479 30.8381C12.298 30.6919 17.6908 21.7884 17.6083 18.7131C17.5538 16.663 16.0019 15.8698 15.0016 15.8959C12.3901 15.9625 9.58217 20.378 9.6343 22.2985C9.65249 22.9823 9.66097 23.5317 9.94468 23.5246C10.5157 23.5091 10.1956 21.9002 11.3208 19.9963C11.91 18.9985 12.7854 17.4906 14.0305 17.4585C14.9883 17.4336 15.4017 18.0484 15.4248 18.945C15.5181 22.4472 11.0746 28.9604 7.85327 29.0424C5.93766 29.0924 4.84771 27.8283 4.79557 25.8851C4.70343 22.4638 7.62049 16.6986 11.4735 11.5922C20.2805 10.7479 28.52 6.43115 28.4097 2.29871ZM113.556 26.7949C115.137 24.4748 115.606 21.4816 115.571 20.1223C115.495 17.2718 115.514 15.444 115.998 13.9575L112.596 13.9682C110.319 18.1066 103.606 27.1433 101.775 27.1897C101.09 27.2075 100.963 26.7782 100.952 26.3775C100.941 25.9767 101.691 24.099 102.509 22.8598L113.012 4.20736H109.283L99.9601 20.4577C98.4179 23.1036 95.7979 26.8472 94.2181 26.8876C93.5549 26.9043 93.39 26.4916 93.3803 26.0754C93.3718 25.7876 93.6143 25.0765 94.423 23.5175L105.21 4.21687H101.483L93.7222 18.0567C90.9264 22.9573 87.0091 27.3954 84.3345 27.4632C83.3222 27.4894 82.7172 26.821 82.6966 26.0956C82.642 24.0466 85.7785 21.9786 88.5646 21.9073C89.1611 21.8918 89.6534 21.0891 89.6437 20.6931C89.6243 19.9784 87.7184 20.6063 86.8951 19.1817C90.2474 18.3385 93.0093 17.0697 92.9632 15.3192C92.9354 14.2834 91.6551 13.6543 89.9468 13.6983C87.8469 13.7518 82.5753 15.3941 82.6687 18.9165C82.6751 19.0392 82.703 19.1598 82.7511 19.2732C81.8964 19.4314 81.1398 19.5289 80.6112 19.5456C80.9337 18.6572 81.1047 17.8319 81.0865 17.1303C81.0465 15.6367 80.0899 14.4641 78.5986 14.5022C77.9779 14.5188 76.2914 14.9779 75.8768 15.3727L76.1047 14.7888C81.3702 11.8443 86.6902 7.97234 86.6114 5.00174C86.5981 4.52131 85.9761 3.19179 84.8656 3.21914C81.6757 3.30119 75.4682 10.0356 71.1738 16.4774C69.5674 17.2647 68.1804 17.7832 67.3014 17.8676C67.225 16.217 66.2878 14.6889 64.6535 14.7317C63.2495 14.7674 61.6297 15.9934 61.1144 16.2634L62.9076 12.6352L59.5007 12.6387C56.5109 18.26 50.8308 27.5536 49.3783 27.5916C49.1164 27.5976 48.9322 27.3788 48.9237 27.091C48.8946 25.9696 54.0776 18.8178 54.0206 16.6725C53.9831 15.274 52.727 14.7032 51.9098 14.7234C50.3058 14.765 48.3126 16.456 47.8846 16.927C47.727 15.9054 47.1135 14.7353 45.5398 14.7757C44.4959 14.8019 43.2896 15.5225 42.3754 16.1552L41.9935 15.3548L38.8594 15.3572C37.6434 17.9734 31.6565 27.4715 29.7409 27.5203C29.0086 27.5393 29.1808 26.4131 29.6863 25.4701L34.4135 15.3572L30.8539 15.3703L30.3107 15.8721C30.0695 15.3977 29.5263 14.6104 28.0569 14.6485C23.9759 14.7531 17.1743 21.9251 17.3137 27.135C17.3731 29.3552 18.851 30.4124 20.0477 30.3815C22.7538 30.3113 24.8537 27.3788 25.295 26.8496C25.141 27.8152 25.3168 30.2935 27.5925 30.2352C30.2998 30.1662 35.0307 23.439 36.0527 21.811L32.2894 29.417L35.7557 29.4337L40.147 20.4612C40.8684 18.9153 41.8068 17.9342 42.7998 17.908C43.3926 17.8926 43.5406 18.1447 43.5515 18.5454C43.5588 18.8023 43.3708 19.5146 43.2472 19.8072L38.526 29.4396L41.9014 29.4313L45.9751 21.2723C46.5946 19.9749 47.9174 17.9045 48.8752 17.8807C49.462 17.8652 49.6838 18.197 49.6935 18.549C49.7032 18.901 49.4583 19.517 49.1455 20.0379L46.1472 25.2418C45.5762 26.3014 45.187 27.1921 45.2076 27.99C45.2331 28.9402 46.0236 30.02 47.2542 29.989C50.0209 29.9177 52.413 26.0671 53.589 24.4569L47.436 37.0041H50.8708L55.1955 28.2148C55.4755 29.5645 56.5922 30.2947 57.5536 30.2697C60.6865 30.19 66.6297 23.7077 67.2541 18.9046C68.0434 18.6513 69.143 18.2172 70.4112 17.6524C68.1076 21.2889 66.5206 24.6924 66.5703 26.5761C66.6236 28.5513 67.7791 30.2304 69.6086 30.1841C73.384 30.0866 78.4143 24.6555 80.3166 20.29C81.232 20.2008 82.2152 20.0759 83.213 19.9202C83.6919 20.3911 84.4473 20.8406 85.3469 21.2544C83.4652 21.7527 78.5392 23.879 78.635 27.5001C78.6786 29.1328 79.8935 30.3363 81.7654 30.2875C84.263 30.2233 87.6456 27.1564 89.286 25.639C88.932 26.7806 89.0666 29.9391 91.5884 29.8749C93.5149 29.8249 95.8706 27.4894 96.5677 26.7021C96.6199 28.6453 97.5037 29.9474 99.332 29.8999C100.578 29.8677 102.085 28.8807 103.611 27.5013L103.555 27.5548C103.86 27.9638 105.834 29.9248 108.185 29.8642C109.377 29.847 110.539 29.4937 111.531 28.8462C112.839 29.0829 114.623 29.7952 115.894 29.7631C117.86 29.7132 118.694 28.0031 118.996 27.248C117.847 27.5286 115.348 27.0791 113.556 26.7949Z" fill="#43464B"></path><path d="M24.7529 1.14259C26.2102 1.10573 26.3047 1.76454 26.3217 2.38411C26.3884 4.87071 20.2584 9.56683 12.2129 10.6347C16.2854 5.48671 21.2114 1.23416 24.7529 1.14259ZM83.6627 4.78866C84.1852 4.77439 84.2507 4.8053 84.2676 5.44628C84.3186 7.34304 80.6971 10.5646 76.6913 13.2521C77.6103 11.2353 81.9968 4.83147 83.6627 4.78866ZM86.5215 17.6307C86.5009 16.8518 88.1122 14.8017 89.7453 14.76C90.3321 14.7446 90.5043 15.0288 90.514 15.3808C90.5431 16.5153 88.7281 17.5261 86.5846 18.2693C86.5477 18.0583 86.5266 17.8448 86.5215 17.6307ZM109.697 26.4224C108.923 26.9659 107.162 27.1895 105.388 25.7398C108.101 22.8561 110.57 19.4133 111.382 18.7224C110.84 19.4026 112.725 23.874 109.697 26.4224ZM75.9457 16.7805C73.5402 16.8423 70.1091 24.5685 70.1588 26.4165C70.1843 27.4083 70.8402 27.5201 71.1676 27.5117C73.6057 27.4499 77.2757 20.1019 77.2223 18.0945C77.2029 17.3679 76.7289 16.7603 75.9457 16.7805ZM56.3167 26.8993C56.3313 27.444 56.7047 27.947 57.2915 27.9327C59.6206 27.8733 63.5961 20.5169 63.5476 18.7022C63.5318 18.0826 63.2493 17.3477 62.3352 17.3715C59.5066 17.444 56.2998 26.2702 56.3167 26.8993ZM29.1745 17.4702C29.166 17.1491 28.949 16.3857 28.2955 16.4035C25.901 16.4653 21.3448 24.0488 21.409 26.4831C21.426 27.1241 21.9946 27.6533 22.3874 27.6437C24.7832 27.5819 29.2424 20.021 29.1745 17.4702Z" fill="white"></path><path d="M117.692 30.5478C117.692 29.424 118.66 28.5048 119.852 28.5048C121.039 28.5048 122 29.424 122 30.5478C122 31.6942 121.04 32.6134 119.852 32.6134C118.66 32.6134 117.692 31.693 117.692 30.5478" fill="#43464B"></path><path d="M119.851 28.9055C118.877 28.9055 118.102 29.6393 118.102 30.5466C118.102 31.4837 118.879 32.2103 119.851 32.2103C120.813 32.2103 121.591 31.4837 121.591 30.5466C121.591 29.6393 120.813 28.9055 119.851 28.9055Z" fill="white"></path><path d="M119.406 30.6465H119.828L120.517 31.7061H120.925L120.195 30.6465C120.623 30.6346 120.954 30.4657 120.954 30.0126C120.957 29.9146 120.934 29.8174 120.888 29.7307C120.841 29.644 120.772 29.5707 120.688 29.5179C120.504 29.4192 120.302 29.4073 120.101 29.4073H119.051V31.7061H119.406V30.6465V30.6465Z" fill="#43464B"></path><path d="M119.407 29.6678H120.032C120.334 29.6678 120.601 29.7083 120.601 30.0056C120.601 30.4182 120.138 30.36 119.8 30.36H119.408V29.6678H119.407Z" fill="white"></path></g><defs><clipPath id="clip0_98_20538"><rect width="122" height="37" fill="white"></rect></clipPath></defs></svg> 