<?xml version="1.0" encoding="UTF-8"?> <svg xmlns="http://www.w3.org/2000/svg" width="143" height="36" viewBox="0 0 143 36" fill="none"><g clip-path="url(#clip0_98_20546)"><path fill-rule="evenodd" clip-rule="evenodd" d="M25.9699 22.7923C20.7516 22.7923 16.5221 18.5968 16.5221 13.4226C16.5221 8.2473 20.7516 4.05274 25.9699 4.05274C31.1884 4.05274 35.4178 8.2473 35.4178 13.4226C35.4178 18.5968 31.1884 22.7923 25.9699 22.7923ZM25.9699 0C18.491 0 12.4268 6.01309 12.4268 13.4302C12.4268 20.8484 18.491 26.8615 25.9699 26.8615C33.4488 26.8615 39.5132 20.8484 39.5132 13.4302C39.5132 6.01309 33.4488 0 25.9699 0Z" fill="#EDEFF0"></path><path fill-rule="evenodd" clip-rule="evenodd" d="M19.5915 13.4296C19.5915 16.9238 22.447 19.7558 25.9704 19.7558C29.4937 19.7558 32.3493 16.9238 32.3493 13.4296C32.3493 9.93645 29.4937 7.10447 25.9704 7.10447C22.447 7.10447 19.5915 9.93645 19.5915 13.4296ZM16.5225 13.4219C16.5225 8.24775 20.7519 4.05212 25.9704 4.05212C31.1887 4.05212 35.4183 8.24775 35.4183 13.4219C35.4183 18.5972 31.1887 22.7918 25.9704 22.7918C20.7519 22.7918 16.5225 18.5972 16.5225 13.4219ZM81.4544 25.6247H78.3893L82.015 30.6964V35.3797H84.5724V30.6964L88.1996 25.6247H85.1338L83.2945 28.2767L81.4544 25.6247ZM96.8212 30.3341C96.8212 32.0163 98.0734 33.2447 99.6002 33.2447C101.126 33.2447 102.379 32.0163 102.379 30.3341C102.379 28.989 101.126 27.7595 99.6002 27.7595C98.0734 27.7595 96.8212 28.989 96.8212 30.3341ZM105.04 30.321C105.04 33.4781 102.757 35.7025 99.6002 35.7025C96.4429 35.7025 94.1602 33.4781 94.1602 30.321C94.1602 27.3712 96.7697 25.3017 99.6002 25.3017C102.431 25.3017 105.04 27.3712 105.04 30.321ZM120.901 33.7883C121.776 32.5719 121.88 31.3555 121.907 29.9329H116.832V31.925H118.919C118.814 33.0508 117.968 33.6203 116.859 33.6203C115.176 33.6203 114.263 32.0799 114.263 30.5668C114.263 29.0788 115.136 27.4883 116.819 27.4883C117.85 27.4883 118.592 28.109 118.945 29.0406L121.372 28.0316C120.523 26.2076 118.959 25.3021 116.936 25.3021C113.766 25.3021 111.602 27.3846 111.602 30.5537C111.602 33.6203 113.753 35.7028 116.846 35.7028C118.489 35.7028 119.936 35.1203 120.901 33.7883ZM133.242 28.6391H133.216L132.159 31.7438H134.286L133.242 28.6391ZM131.455 33.6846L130.777 35.3788H128.063L131.846 25.625H134.638L138.343 35.3788H135.616L134.977 33.6846H131.455ZM141.148 26.3529H141.453C141.606 26.3529 141.696 26.4206 141.696 26.5449C141.696 26.6639 141.606 26.738 141.453 26.738H141.148V26.3529ZM141.98 27.3599L141.65 26.9017C141.819 26.8537 141.935 26.7315 141.935 26.5329C141.935 26.2886 141.748 26.1446 141.463 26.1446H140.917V27.3599H141.148V26.9399H141.405L141.703 27.3599H141.98ZM140.34 26.7893C140.34 26.2122 140.794 25.7399 141.392 25.7399C141.986 25.7399 142.437 26.2056 142.437 26.7827C142.437 27.3599 141.983 27.8311 141.385 27.8311C140.79 27.8311 140.34 27.3664 140.34 26.7893ZM140.218 26.7893C140.218 27.4242 140.728 27.9479 141.385 27.9479C142.042 27.9479 142.56 27.4177 142.56 26.7827C142.56 26.1479 142.049 25.6253 141.392 25.6253C140.735 25.6253 140.218 26.1544 140.218 26.7893Z" fill="#43464B"></path><path fill-rule="evenodd" clip-rule="evenodd" d="M108.405 6.65076L104.783 15.3584L101.336 7.5366H99.0786L104.808 19.9086L108.405 11.2991L112.002 19.9086L117.781 7.5366H115.524L112.051 15.3584L108.405 6.65076ZM44.5375 8.7906H44.5869C45.2811 7.88077 45.8761 7.21638 47.1665 7.21638C47.8364 7.21638 48.382 7.43784 48.9528 7.75747L48.009 9.55312C47.9578 9.5181 47.9086 9.48345 47.8606 9.4497C47.5382 9.22282 47.2727 9.036 46.8189 9.036C44.6364 9.036 44.5375 11.8156 44.5375 13.3168V19.0975H42.553V7.536H44.5375V8.7906ZM9.82191 10.9804H9.77242C8.85503 9.82402 7.71322 9.03742 6.1512 9.03742C3.7444 9.03742 2.0339 11.0044 2.0339 13.3171C2.0339 15.6047 3.6212 17.5978 6.0511 17.5978C7.71322 17.5978 8.87916 16.8592 9.84612 15.6047H9.89674V18.2371C8.75493 18.9996 7.58997 19.4174 6.2007 19.4174C2.6785 19.4174 0 16.8102 0 13.3171C0 9.87307 2.8028 7.21671 6.226 7.21671C7.4899 7.21671 8.7802 7.63455 9.82191 8.37307V10.9804ZM58.1293 9.03712C59.8652 9.03712 61.2787 10.3888 61.5514 12.0622H54.5819C54.8294 10.3888 56.4177 9.03712 58.1293 9.03712ZM58.3021 17.5964C56.0449 17.5964 54.5071 15.8749 54.4829 13.7346H63.6349C63.834 10.2906 61.8496 7.21638 58.1041 7.21638C54.4576 7.21638 52.449 10.0451 52.449 13.464C52.449 16.7848 54.6809 19.4171 58.1536 19.4171C60.5351 19.4171 62.4194 18.2368 63.5359 16.1706L61.8496 15.2106C61.0807 16.5884 59.9884 17.5964 58.3021 17.5964ZM70.0329 13.1941C70.0329 15.4578 71.3716 17.5971 73.8532 17.5971C76.4074 17.5971 77.7458 15.556 77.7458 13.2181C77.7458 10.9065 76.2833 9.03667 73.8279 9.03667C71.5212 9.03667 70.0329 11.0298 70.0329 13.1941ZM70.1319 9.18502H70.1825C71.1494 7.90545 72.5882 7.21704 74.1997 7.21704C77.6233 7.21704 79.7811 10.144 79.7811 13.3414C79.7811 16.6381 77.6725 19.4178 74.1755 19.4178C72.5882 19.4178 71.1241 18.7294 70.1825 17.4738H70.1319V25.5923H68.1475V7.53667H70.1319V9.18502ZM129.663 12.0622C129.391 10.3888 127.976 9.03712 126.24 9.03712C124.529 9.03712 122.941 10.3888 122.692 12.0622H129.663ZM122.593 13.7346C122.619 15.8749 124.157 17.5964 126.414 17.5964C128.1 17.5964 129.193 16.5884 129.961 15.2106L131.648 16.1706C130.531 18.2368 128.646 19.4171 126.265 19.4171C122.792 19.4171 120.56 16.7848 120.56 13.464C120.56 10.0451 122.569 7.21638 126.216 7.21638C129.961 7.21638 131.945 10.2906 131.747 13.7346H122.593ZM138.194 8.7906H138.145V7.536H136.16V19.0975H138.145V13.3168C138.145 11.8156 138.244 9.036 140.426 9.036C140.878 9.036 141.143 9.22132 141.465 9.44692V9.44707C141.514 9.48165 141.565 9.5172 141.618 9.55312L142.559 7.75747C141.988 7.43784 141.444 7.21638 140.774 7.21638C139.483 7.21638 138.889 7.88077 138.194 8.7906ZM90.171 17.4678C87.8603 17.4678 85.9861 15.6089 85.9861 13.3169C85.9861 11.0249 87.8603 9.1671 90.171 9.1671C92.4832 9.1671 94.3565 11.0249 94.3565 13.3169C94.3565 15.6089 92.4832 17.4678 90.171 17.4678ZM90.171 7.21651C86.7745 7.21651 84.0212 9.94815 84.0212 13.3168C84.0212 16.6867 86.7745 19.4173 90.171 19.4173C93.5689 19.4173 96.3222 16.6867 96.3222 13.3168C96.3222 9.94815 93.5689 7.21651 90.171 7.21651ZM21.6334 13.4302C21.6334 11.0542 23.5749 9.12877 25.9707 9.12877C28.3665 9.12877 30.308 11.0542 30.308 13.4302C30.308 15.8062 28.3665 17.7316 25.9707 17.7316C23.5749 17.7316 21.6334 15.8062 21.6334 13.4302Z" fill="#43464B"></path></g><defs><clipPath id="clip0_98_20546"><rect width="143" height="36" fill="white"></rect></clipPath></defs></svg> 