<?xml version="1.0" encoding="UTF-8"?> <svg xmlns="http://www.w3.org/2000/svg" width="99" height="39" viewBox="0 0 99 39" fill="none"><path d="M0 34.7922C0.9472 36.6756 2.8767 38.28 6.06911 38.28C9.22645 38.28 11.5418 36.571 11.5418 33.6413C11.5418 30.9557 9.99824 29.6304 7.12155 28.3748L6.03403 27.8865C4.31504 27.1541 3.6134 26.596 3.6134 25.3404C3.6134 24.2243 4.45535 23.3873 5.78845 23.3873C7.08647 23.3873 7.85826 23.9105 8.48973 25.0265L10.5595 23.7709C9.54217 21.9573 8.03367 21.1202 5.78845 21.1202C2.98193 21.1202 1.05245 22.899 1.05245 25.3753C1.05245 27.9562 2.52588 29.177 4.98158 30.293L6.1042 30.7813C7.92843 31.5835 8.91071 32.2462 8.91071 33.6762C8.91071 35.0713 7.68285 35.9781 5.99894 35.9781C3.92913 35.9781 2.91177 34.9317 2.13997 33.6413L0 34.7922ZM20.5227 29.8047V23.5966H23.224C25.4692 23.5966 26.7672 24.5731 26.7672 26.7007C26.7672 28.8282 25.5043 29.8396 23.224 29.8396H20.5227V29.8047ZM17.8916 38.0358H20.5227V32.1067H23.3292C26.8373 32.1067 29.4334 30.3279 29.4334 26.7007C29.4334 23.0385 26.8373 21.2946 23.3292 21.2946H17.8916V38.0358ZM36.9057 32.8042L38.73 28.2353C39.1159 27.2587 39.5369 25.8636 39.5369 25.759C39.5719 25.8985 39.9929 27.2936 40.3788 28.2353L42.2031 32.8042H36.9057ZM32.2399 38.0358H34.7658L35.9936 34.9666H43.1502L44.3781 38.0358H47.1145L39.7473 21.1202H39.4667L32.2399 38.0358ZM50.377 29.6652C50.377 34.6527 54.236 38.2451 59.0071 38.2451C62.1644 38.2451 64.5149 36.8849 65.9883 34.6876L63.9887 33.2925C62.9011 34.8969 61.3225 35.9432 59.0071 35.9432C55.4989 35.9432 53.0432 33.2576 53.0432 29.7001C53.0432 26.1426 55.534 23.457 59.0071 23.457C61.2172 23.457 62.7959 24.4336 63.7431 25.8636L65.7427 24.4336C64.2693 22.2015 62.0241 21.1202 59.0071 21.1202C54.236 21.0854 50.377 24.6778 50.377 29.6652ZM71.6715 38.0358H82.7222V35.7339H74.3026V30.7464H81.4592V28.5143H74.3026V23.5966H82.3714V21.2946H71.6715V38.0358ZM87.4582 34.7922C88.4054 36.6756 90.3349 38.28 93.5273 38.28C96.6846 38.28 99 36.571 99 33.6413C99 30.9557 97.4564 29.6304 94.5798 28.3748L93.4922 27.8865C91.7732 27.1541 91.0716 26.596 91.0716 25.3404C91.0716 24.2243 91.9135 23.3873 93.2466 23.3873C94.5446 23.3873 95.3164 23.9105 95.9479 25.0265L98.0177 23.7709C97.0004 21.9573 95.4918 21.1202 93.2466 21.1202C90.4401 21.1202 88.5106 22.899 88.5106 25.3753C88.5106 27.9562 89.984 29.177 92.4397 30.293L93.5624 30.7813C95.3866 31.5835 96.404 32.2462 96.404 33.6762C96.404 35.0713 95.1761 35.9781 93.4922 35.9781C91.4224 35.9781 90.405 34.9317 89.6332 33.6413L87.4582 34.7922Z" fill="#444444"></path><path d="M2.63965 0.174995H5.31433V14.6437H13.2314V16.9503H2.63965V0.174995ZM20.2212 16.9503H22.8603V0.174995H20.2212V16.9503ZM37.0183 17.125H37.3392L44.65 0.174995H42.0467L38.2308 9.19173C37.6959 10.3101 37.2322 12.1624 37.2322 12.1624C37.2322 12.1624 36.6973 10.2751 36.198 9.19173L32.3465 0.174995H29.4935L37.0183 17.125ZM51.2833 16.9503H53.9223V0.174995H51.2833V16.9503ZM76.247 17.125H76.568V0.174995H74.1072V9.40141C74.1072 10.345 74.2856 11.8129 74.2856 11.8129C74.2856 11.8129 73.3583 10.6246 72.7164 9.92564L63.2658 0.000252282H62.9092V16.9503H65.3699V7.68894C65.3699 6.64048 65.1916 5.27749 65.1916 5.27749C65.1916 5.27749 66.1188 6.43079 66.7964 7.16471L76.247 17.125ZM83.2368 8.56265C83.2368 13.5603 87.0171 17.16 92.3664 17.16C95.5404 17.16 97.8941 16.0067 98.9996 15.0281V8.35296H91.9385V10.6246H96.5389V13.77C95.576 14.3991 94.0782 14.8534 92.3308 14.8534C88.4436 14.8534 85.9115 12.1624 85.9115 8.5976C85.9115 5.03285 88.4079 2.34181 91.9741 2.34181C94.0069 2.34181 95.2551 2.97088 96.2536 3.98439L98.0368 2.23696C96.6459 0.699221 94.5775 0.000252282 91.9741 0.000252282C86.9457 -0.0346963 83.2368 3.56501 83.2368 8.56265Z" fill="#444444"></path></svg> 